<mxfile host="app.diagrams.net" modified="2021-05-22T08:52:56.903Z" agent="5.0 (Windows NT 10.0; WOW64) AppleWebKit/537.36 (KHTML, like Gecko) Chrome/90.0.4430.72 Safari/537.36" etag="xhzxaJjPtrtSt5QGTrvU" version="14.7.0" type="github">
  <diagram id="MX81ZqHXsK38DS1fJgfv" name="Page-1">
    <mxGraphModel dx="782" dy="381" grid="1" gridSize="10" guides="1" tooltips="1" connect="1" arrows="1" fold="1" page="1" pageScale="1" pageWidth="827" pageHeight="1169" math="0" shadow="0">
      <root>
        <mxCell id="0" />
        <mxCell id="1" parent="0" />
        <mxCell id="pK5gxO93txys3d4MAZtP-56" style="edgeStyle=orthogonalEdgeStyle;rounded=0;orthogonalLoop=1;jettySize=auto;html=1;entryX=0.4;entryY=0.1;entryDx=0;entryDy=0;entryPerimeter=0;fontSize=15;" parent="1" target="pK5gxO93txys3d4MAZtP-47" edge="1">
          <mxGeometry relative="1" as="geometry">
            <mxPoint x="510" y="430" as="sourcePoint" />
            <Array as="points">
              <mxPoint x="530" y="430" />
              <mxPoint x="530" y="470" />
              <mxPoint x="582" y="470" />
            </Array>
          </mxGeometry>
        </mxCell>
        <mxCell id="pK5gxO93txys3d4MAZtP-26" value="" style="rounded=1;whiteSpace=wrap;html=1;strokeWidth=2;fillColor=#FFFFFF;strokeColor=#505050;" parent="1" vertex="1">
          <mxGeometry x="330" y="360" width="190" height="170" as="geometry" />
        </mxCell>
        <mxCell id="pK5gxO93txys3d4MAZtP-18" value="" style="ellipse;shape=cloud;whiteSpace=wrap;html=1;strokeWidth=2;fillColor=#FFFFFF;strokeColor=#505050;" parent="1" vertex="1">
          <mxGeometry x="130" y="370" width="188.18" height="160" as="geometry" />
        </mxCell>
        <mxCell id="pK5gxO93txys3d4MAZtP-50" value="" style="edgeStyle=orthogonalEdgeStyle;rounded=0;orthogonalLoop=1;jettySize=auto;html=1;fontSize=15;entryX=1;entryY=0.25;entryDx=0;entryDy=0;" parent="1" source="pK5gxO93txys3d4MAZtP-2" target="pK5gxO93txys3d4MAZtP-38" edge="1">
          <mxGeometry relative="1" as="geometry" />
        </mxCell>
        <mxCell id="pK5gxO93txys3d4MAZtP-2" value="&lt;font color=&quot;#000000&quot;&gt;Database&lt;/font&gt;" style="fontColor=#0066CC;verticalAlign=top;verticalLabelPosition=bottom;labelPosition=center;align=center;html=1;outlineConnect=0;gradientColor=none;gradientDirection=north;strokeWidth=5;shape=mxgraph.networks.storage;fillColor=#FFFFFF;strokeColor=#505050;" parent="1" vertex="1">
          <mxGeometry x="548.87" y="361" width="70" height="70" as="geometry" />
        </mxCell>
        <mxCell id="pK5gxO93txys3d4MAZtP-42" style="edgeStyle=orthogonalEdgeStyle;rounded=0;orthogonalLoop=1;jettySize=auto;html=1;" parent="1" target="pK5gxO93txys3d4MAZtP-36" edge="1">
          <mxGeometry relative="1" as="geometry">
            <mxPoint x="403.79999999999995" y="546" as="sourcePoint" />
          </mxGeometry>
        </mxCell>
        <mxCell id="pK5gxO93txys3d4MAZtP-6" value="" style="pointerEvents=1;shadow=0;dashed=0;html=1;strokeColor=none;fillColor=#505050;labelPosition=center;verticalLabelPosition=bottom;verticalAlign=top;outlineConnect=0;align=center;shape=mxgraph.office.devices.mac_client;" parent="1" vertex="1">
          <mxGeometry x="240" y="455" width="36.25" height="30" as="geometry" />
        </mxCell>
        <mxCell id="pK5gxO93txys3d4MAZtP-7" value="" style="pointerEvents=1;shadow=0;dashed=0;html=1;strokeColor=none;fillColor=#505050;labelPosition=center;verticalLabelPosition=bottom;verticalAlign=top;outlineConnect=0;align=center;shape=mxgraph.office.devices.workstation;" parent="1" vertex="1">
          <mxGeometry x="173.76" y="449" width="37.86" height="40" as="geometry" />
        </mxCell>
        <mxCell id="pK5gxO93txys3d4MAZtP-12" value="" style="pointerEvents=1;shadow=0;dashed=0;html=1;strokeColor=none;fillColor=#505050;labelPosition=center;verticalLabelPosition=bottom;verticalAlign=top;outlineConnect=0;align=center;shape=mxgraph.office.devices.cell_phone_iphone_proportional;" parent="1" vertex="1">
          <mxGeometry x="217.62" y="440" width="17" height="29" as="geometry" />
        </mxCell>
        <mxCell id="pK5gxO93txys3d4MAZtP-46" style="edgeStyle=orthogonalEdgeStyle;rounded=0;orthogonalLoop=1;jettySize=auto;html=1;exitX=1;exitY=0.5;exitDx=0;exitDy=0;entryX=0;entryY=0.361;entryDx=0;entryDy=0;entryPerimeter=0;fontSize=15;" parent="1" source="pK5gxO93txys3d4MAZtP-19" target="pK5gxO93txys3d4MAZtP-26" edge="1">
          <mxGeometry relative="1" as="geometry" />
        </mxCell>
        <mxCell id="pK5gxO93txys3d4MAZtP-19" value="Browser" style="rounded=1;whiteSpace=wrap;html=1;strokeWidth=2;fillColor=#FFFFFF;strokeColor=#505050;" parent="1" vertex="1">
          <mxGeometry x="200.11999999999998" y="412" width="60" height="20" as="geometry" />
        </mxCell>
        <mxCell id="pK5gxO93txys3d4MAZtP-41" value="" style="edgeStyle=orthogonalEdgeStyle;rounded=0;orthogonalLoop=1;jettySize=auto;html=1;entryX=0.5;entryY=0;entryDx=0;entryDy=0;entryPerimeter=0;" parent="1" source="pK5gxO93txys3d4MAZtP-36" target="G3a18ldY3Q1iQICB0WqI-1" edge="1">
          <mxGeometry relative="1" as="geometry">
            <mxPoint x="403.79999999999995" y="546" as="targetPoint" />
          </mxGeometry>
        </mxCell>
        <mxCell id="pK5gxO93txys3d4MAZtP-36" value="SMTP" style="rounded=1;whiteSpace=wrap;html=1;strokeWidth=2;fillColor=#FFFFFF;strokeColor=#505050;arcSize=50;" parent="1" vertex="1">
          <mxGeometry x="346" y="492" width="115.5" height="25" as="geometry" />
        </mxCell>
        <mxCell id="pK5gxO93txys3d4MAZtP-37" value="" style="group" parent="1" vertex="1" connectable="0">
          <mxGeometry x="340" y="370" width="110" height="110" as="geometry" />
        </mxCell>
        <mxCell id="pK5gxO93txys3d4MAZtP-35" value="" style="rounded=1;whiteSpace=wrap;html=1;strokeColor=#505050;strokeWidth=2;fillColor=#FFFFFF;" parent="pK5gxO93txys3d4MAZtP-37" vertex="1">
          <mxGeometry width="110" height="110" as="geometry" />
        </mxCell>
        <mxCell id="pK5gxO93txys3d4MAZtP-32" value="JSP" style="rounded=1;whiteSpace=wrap;html=1;strokeWidth=2;fillColor=#FFFFFF;strokeColor=#505050;arcSize=50;" parent="pK5gxO93txys3d4MAZtP-37" vertex="1">
          <mxGeometry x="14.5" y="7.5" width="81" height="25" as="geometry" />
        </mxCell>
        <mxCell id="pK5gxO93txys3d4MAZtP-33" value="WebService" style="rounded=1;whiteSpace=wrap;html=1;strokeWidth=2;fillColor=#FFFFFF;strokeColor=#505050;arcSize=50;" parent="pK5gxO93txys3d4MAZtP-37" vertex="1">
          <mxGeometry x="14.5" y="42.5" width="81" height="25" as="geometry" />
        </mxCell>
        <mxCell id="pK5gxO93txys3d4MAZtP-34" value="Http Interface" style="rounded=1;whiteSpace=wrap;html=1;strokeWidth=2;fillColor=#FFFFFF;strokeColor=#505050;arcSize=50;" parent="pK5gxO93txys3d4MAZtP-37" vertex="1">
          <mxGeometry x="14.5" y="75" width="81" height="25" as="geometry" />
        </mxCell>
        <mxCell id="pK5gxO93txys3d4MAZtP-53" style="edgeStyle=orthogonalEdgeStyle;rounded=0;orthogonalLoop=1;jettySize=auto;html=1;exitX=1;exitY=0.25;exitDx=0;exitDy=0;entryX=0;entryY=0.5;entryDx=0;entryDy=0;entryPerimeter=0;fontSize=15;" parent="1" source="pK5gxO93txys3d4MAZtP-38" target="pK5gxO93txys3d4MAZtP-2" edge="1">
          <mxGeometry relative="1" as="geometry" />
        </mxCell>
        <mxCell id="pK5gxO93txys3d4MAZtP-38" value="JDBC" style="rounded=1;whiteSpace=wrap;html=1;strokeColor=#505050;strokeWidth=2;fillColor=#FFFFFF;" parent="1" vertex="1">
          <mxGeometry x="465.37" y="379" width="44.5" height="70" as="geometry" />
        </mxCell>
        <mxCell id="pK5gxO93txys3d4MAZtP-45" value="Instructor / Strudent Clients" style="text;html=1;strokeColor=none;fillColor=none;align=center;verticalAlign=middle;whiteSpace=wrap;rounded=0;fontSize=15;" parent="1" vertex="1">
          <mxGeometry x="122.23000000000002" y="360" width="207.73" height="10" as="geometry" />
        </mxCell>
        <mxCell id="pK5gxO93txys3d4MAZtP-52" style="edgeStyle=orthogonalEdgeStyle;rounded=0;orthogonalLoop=1;jettySize=auto;html=1;exitX=0.4;exitY=0.1;exitDx=0;exitDy=0;exitPerimeter=0;fontSize=15;" parent="1" edge="1">
          <mxGeometry relative="1" as="geometry">
            <mxPoint x="581.548" y="479.1" as="sourcePoint" />
            <mxPoint x="510" y="431" as="targetPoint" />
            <Array as="points">
              <mxPoint x="582" y="470" />
              <mxPoint x="530" y="470" />
              <mxPoint x="530" y="431" />
            </Array>
          </mxGeometry>
        </mxCell>
        <mxCell id="pK5gxO93txys3d4MAZtP-47" value="" style="ellipse;shape=cloud;whiteSpace=wrap;html=1;strokeWidth=2;fillColor=#FFFFFF;strokeColor=#505050;" parent="1" vertex="1">
          <mxGeometry x="540" y="480" width="103.87" height="100" as="geometry" />
        </mxCell>
        <mxCell id="pK5gxO93txys3d4MAZtP-48" value="" style="pointerEvents=1;shadow=0;dashed=0;html=1;strokeColor=none;fillColor=#505050;labelPosition=center;verticalLabelPosition=bottom;verticalAlign=top;outlineConnect=0;align=center;shape=mxgraph.office.devices.workstation;" parent="1" vertex="1">
          <mxGeometry x="572.9999999999999" y="510" width="37.86" height="40" as="geometry" />
        </mxCell>
        <mxCell id="pK5gxO93txys3d4MAZtP-49" value="Administrator Clients" style="text;html=1;strokeColor=none;fillColor=none;align=center;verticalAlign=middle;whiteSpace=wrap;rounded=0;fontSize=15;" parent="1" vertex="1">
          <mxGeometry x="480" y="582" width="207.73" height="10" as="geometry" />
        </mxCell>
        <mxCell id="pK5gxO93txys3d4MAZtP-59" value="" style="endArrow=classic;html=1;fontSize=15;exitX=0.25;exitY=0.25;exitDx=0;exitDy=0;exitPerimeter=0;" parent="1" source="pK5gxO93txys3d4MAZtP-47" edge="1">
          <mxGeometry width="50" height="50" relative="1" as="geometry">
            <mxPoint x="390" y="520" as="sourcePoint" />
            <mxPoint x="520" y="505" as="targetPoint" />
          </mxGeometry>
        </mxCell>
        <mxCell id="G3a18ldY3Q1iQICB0WqI-1" value="" style="shape=mxgraph.signs.tech.mail;html=1;pointerEvents=1;strokeColor=none;verticalLabelPosition=bottom;verticalAlign=top;align=center;fillColor=#505050;" vertex="1" parent="1">
          <mxGeometry x="385.35" y="555" width="35.64" height="27" as="geometry" />
        </mxCell>
      </root>
    </mxGraphModel>
  </diagram>
</mxfile>
